<svg width="24" height="25" viewBox="0 0 24 25" fill="none" xmlns="http://www.w3.org/2000/svg">
<path d="M11 18.5V21.5C11 22.05 10.55 22.5 10 22.5C9.45 22.5 9 22.05 9 21.5V18.5H11Z" fill="#101F4C"/>
<path d="M15 18.5V21.5C15 22.05 14.55 22.5 14 22.5C13.45 22.5 13 22.05 13 21.5V18.5H15Z" fill="#101F4C"/>
<path d="M17 11.5V16.5C17 17.6 16.1 18.5 15 18.5H9C7.9 18.5 7 17.6 7 16.5V11.5C7 10.4 7.9 9.5 9 9.5H15C16.1 9.5 17 10.4 17 11.5Z" fill="#101F4C"/>
<path d="M5 11.5V15.5C5 16.05 4.55 16.5 4 16.5C3.45 16.5 3 16.05 3 15.5V11.5C3 10.95 3.45 10.5 4 10.5C4.55 10.5 5 10.95 5 11.5Z" fill="#101F4C"/>
<path d="M21 11.5V15.5C21 16.05 20.55 16.5 20 16.5C19.45 16.5 19 16.05 19 15.5V11.5C19 10.95 19.45 10.5 20 10.5C20.55 10.5 21 10.95 21 11.5Z" fill="#101F4C"/>
<path d="M9.59998 8.10001H14.4C15.28 8.10001 16 7.38 16 6.5C16 4.29 14.21 2.5 12 2.5C9.79 2.5 8 4.29 8 6.5C8 7.38 8.71998 8.10001 9.59998 8.10001Z" fill="#101F4C"/>
</svg>
