<svg width="180" height="52" viewBox="0 0 180 52" fill="none" xmlns="http://www.w3.org/2000/svg">
<path d="M179 46.0034C179 48.7745 176.709 51.0192 173.874 51.0192H6.13243C3.2995 51.0192 1 48.7745 1 46.0034V6.00382C1 3.23398 3.2995 0.981445 6.13243 0.981445H173.873C176.709 0.981445 178.999 3.23398 178.999 6.00382L179 46.0034Z" fill="#1F1F1F"/>
<path d="M173.333 1.04162C176.42 1.04162 178.932 3.4905 178.932 6.5V45.5C178.932 48.5095 176.42 50.9584 173.333 50.9584H6.66667C3.58 50.9584 1.06833 48.5095 1.06833 45.5V6.5C1.06833 3.4905 3.58 1.04162 6.66667 1.04162H173.333ZM173.333 2.74817e-06H6.66667C3.00167 2.74817e-06 0 2.92663 0 6.5V45.5C0 49.0734 3.00167 52 6.66667 52H173.333C176.998 52 180 49.0734 180 45.5V6.5C180 2.92663 176.998 2.74817e-06 173.333 2.74817e-06Z" fill="#B8B8B8"/>
<path d="M40.1714 25.7191C40.1328 21.5292 43.6901 19.4908 43.8528 19.3959C41.8381 16.532 38.7154 16.1407 37.6181 16.1095C34.9954 15.8404 32.4514 17.6396 31.1154 17.6396C29.7528 17.6396 27.6954 16.1355 25.4781 16.1797C22.6248 16.2226 19.9554 17.8333 18.4914 20.3345C15.4701 25.4344 17.7234 32.9289 20.6181 37.0512C22.0661 39.0701 23.7581 41.3243 25.9728 41.245C28.1394 41.1579 28.9488 39.8982 31.5634 39.8982C34.1541 39.8982 34.9141 41.245 37.1728 41.1943C39.4981 41.1579 40.9621 39.1663 42.3594 37.1292C44.0328 34.8152 44.7048 32.5363 44.7314 32.4193C44.6768 32.4011 40.2154 30.741 40.1714 25.7191Z" fill="white"/>
<path d="M35.9048 13.3977C37.0701 11.9768 37.8674 10.0437 37.6461 8.08203C35.9594 8.15483 33.8501 9.21953 32.6354 10.6092C31.5608 11.8338 30.6008 13.841 30.8488 15.7286C32.7434 15.8664 34.6888 14.7965 35.9048 13.3977Z" fill="white"/>
<path d="M71.5266 40.9557H68.4986L66.84 35.874H61.0746L59.4946 40.9557H56.5466L62.2586 23.6553H65.7866L71.5266 40.9557ZM66.34 33.742L64.84 29.2245C64.6813 28.763 64.384 27.6762 63.9453 25.9654H63.892C63.7173 26.7012 63.436 27.788 63.0493 29.2245L61.576 33.742H66.34Z" fill="white"/>
<path d="M86.2156 34.5647C86.2156 36.6863 85.6276 38.3633 84.4516 39.5944C83.3983 40.6903 82.0903 41.2376 80.529 41.2376C78.8436 41.2376 77.633 40.6474 76.8956 39.467H76.8423V46.0385H73.9996V32.5874C73.9996 31.2536 73.9636 29.8847 73.8943 28.4807H76.3943L76.553 30.458H76.6063C77.5543 28.9682 78.993 28.2246 80.9236 28.2246C82.433 28.2246 83.693 28.8057 84.701 29.9692C85.7116 31.134 86.2156 32.6654 86.2156 34.5647ZM83.3196 34.6661C83.3196 33.4519 83.0396 32.4509 82.477 31.6631C81.8623 30.8415 81.037 30.4307 80.0023 30.4307C79.301 30.4307 78.6636 30.6595 78.0943 31.1106C77.5236 31.5656 77.1503 32.1597 76.9756 32.8955C76.8876 33.2387 76.8436 33.5195 76.8436 33.7405V35.8205C76.8436 36.7279 77.129 37.4936 77.6996 38.1189C78.2703 38.7442 79.0116 39.0562 79.9236 39.0562C80.9943 39.0562 81.8276 38.6532 82.4236 37.8498C83.021 37.0451 83.3196 35.9843 83.3196 34.6661Z" fill="white"/>
<path d="M100.931 34.5647C100.931 36.6863 100.343 38.3633 99.1658 39.5944C98.1138 40.6903 96.8057 41.2376 95.2444 41.2376C93.5591 41.2376 92.3484 40.6474 91.6124 39.467H91.5591V46.0385H88.7164V32.5874C88.7164 31.2536 88.6804 29.8847 88.6111 28.4807H91.1111L91.2698 30.458H91.3231C92.2697 28.9682 93.7084 28.2246 95.6404 28.2246C97.1484 28.2246 98.4084 28.8057 99.4191 29.9692C100.426 31.134 100.931 32.6654 100.931 34.5647ZM98.0351 34.6661C98.0351 33.4519 97.7537 32.4509 97.1911 31.6631C96.5764 30.8415 95.7538 30.4307 94.7178 30.4307C94.0151 30.4307 93.3791 30.6595 92.8084 31.1106C92.2378 31.5656 91.8657 32.1597 91.6911 32.8955C91.6044 33.2387 91.5591 33.5195 91.5591 33.7405V35.8205C91.5591 36.7279 91.8444 37.4936 92.4124 38.1189C92.9831 38.7429 93.7244 39.0562 94.6391 39.0562C95.7098 39.0562 96.5431 38.6532 97.1391 37.8498C97.7364 37.0451 98.0351 35.9843 98.0351 34.6661Z" fill="white"/>
<path d="M117.387 36.1037C117.387 37.5753 116.863 38.7726 115.811 39.6969C114.655 40.707 113.045 41.2114 110.977 41.2114C109.068 41.2114 107.537 40.8526 106.379 40.1337L107.037 37.8236C108.285 38.5594 109.655 38.9286 111.147 38.9286C112.217 38.9286 113.051 38.692 113.649 38.2214C114.245 37.7508 114.543 37.119 114.543 36.3312C114.543 35.6292 114.297 35.0377 113.805 34.558C113.316 34.0783 112.499 33.6324 111.357 33.2203C108.251 32.0906 106.699 30.4357 106.699 28.2595C106.699 26.8373 107.243 25.6712 108.332 24.7638C109.417 23.8551 110.865 23.4014 112.676 23.4014C114.291 23.4014 115.632 23.6757 116.703 24.223L115.992 26.4824C114.992 25.952 113.861 25.6868 112.596 25.6868C111.596 25.6868 110.815 25.9273 110.255 26.4057C109.781 26.8334 109.544 27.3547 109.544 27.9722C109.544 28.656 109.815 29.2215 110.359 29.6661C110.832 30.0769 111.692 30.5215 112.94 31.0012C114.467 31.6005 115.588 32.3012 116.309 33.1046C117.028 33.9054 117.387 34.9077 117.387 36.1037Z" fill="white"/>
<path d="M126.784 30.5604H123.651V36.6171C123.651 38.1576 124.203 38.9272 125.309 38.9272C125.817 38.9272 126.239 38.8843 126.572 38.7985L126.651 40.9032C126.091 41.1073 125.353 41.21 124.44 41.21C123.317 41.21 122.44 40.8759 121.807 40.209C121.176 39.5408 120.859 38.4202 120.859 36.8459V30.5578H118.992V28.4778H120.859V26.1937L123.651 25.3721V28.4778H126.784V30.5604Z" fill="white"/>
<path d="M140.92 34.6151C140.92 36.5326 140.358 38.1069 139.235 39.338C138.058 40.6055 136.495 41.2373 134.547 41.2373C132.67 41.2373 131.175 40.6302 130.06 39.416C128.946 38.2018 128.388 36.6691 128.388 34.8218C128.388 32.8887 128.962 31.3053 130.112 30.0742C131.26 28.8418 132.81 28.2256 134.758 28.2256C136.635 28.2256 138.146 28.8327 139.286 30.0482C140.376 31.2273 140.92 32.7496 140.92 34.6151ZM137.971 34.7048C137.971 33.5543 137.719 32.5676 137.208 31.7447C136.612 30.7489 135.76 30.2523 134.656 30.2523C133.514 30.2523 132.646 30.7502 132.05 31.7447C131.539 32.5689 131.287 33.5712 131.287 34.7568C131.287 35.9073 131.539 36.894 132.05 37.7156C132.664 38.7114 133.523 39.208 134.631 39.208C135.716 39.208 136.568 38.701 137.183 37.6896C137.707 36.8511 137.971 35.854 137.971 34.7048Z" fill="white"/>
<path d="M150.161 30.9182C149.88 30.8675 149.58 30.8415 149.265 30.8415C148.265 30.8415 147.492 31.2094 146.948 31.9465C146.475 32.5965 146.237 33.4181 146.237 34.41V40.9555H143.396L143.423 32.4093C143.423 30.9715 143.387 29.6624 143.316 28.482H145.792L145.896 30.8688H145.975C146.275 30.0485 146.748 29.3881 147.396 28.8928C148.029 28.4469 148.713 28.2246 149.451 28.2246C149.713 28.2246 149.951 28.2428 150.161 28.2753V30.9182Z" fill="white"/>
<path d="M162.874 34.1279C162.874 34.6245 162.841 35.0431 162.77 35.385H154.242C154.276 36.6174 154.688 37.5599 155.48 38.2099C156.198 38.791 157.128 39.0822 158.269 39.0822C159.532 39.0822 160.684 38.8859 161.72 38.492L162.165 40.416C160.954 40.9308 159.525 41.1869 157.876 41.1869C155.892 41.1869 154.334 40.6175 153.201 39.48C152.07 38.3425 151.504 36.815 151.504 34.8988C151.504 33.0177 152.03 31.4512 153.085 30.2019C154.189 28.8681 155.681 28.2012 157.558 28.2012C159.402 28.2012 160.798 28.8681 161.746 30.2019C162.497 31.2614 162.874 32.5718 162.874 34.1279ZM160.164 33.409C160.182 32.5874 159.997 31.8776 159.612 31.2783C159.12 30.5074 158.364 30.1226 157.346 30.1226C156.417 30.1226 155.661 30.4983 155.084 31.2523C154.61 31.8516 154.329 32.5705 154.242 33.4077H160.164V33.409Z" fill="white"/>
<path d="M65.3997 13.0123C65.3997 14.5424 64.9291 15.6942 63.989 16.4677C63.1184 17.1814 61.881 17.5389 60.2784 17.5389C59.4837 17.5389 58.8037 17.5051 58.2344 17.4375V9.07719C58.977 8.96019 59.777 8.90039 60.641 8.90039C62.1677 8.90039 63.3184 9.22409 64.0944 9.87149C64.9637 10.6034 65.3997 11.6499 65.3997 13.0123ZM63.9264 13.05C63.9264 12.0581 63.657 11.2976 63.1184 10.7672C62.5797 10.2381 61.793 9.97289 60.757 9.97289C60.317 9.97289 59.9424 10.0015 59.6317 10.0613V16.417C59.8037 16.443 60.1184 16.4547 60.5757 16.4547C61.645 16.4547 62.4704 16.1648 63.0517 15.585C63.6331 15.0052 63.9264 14.1602 63.9264 13.05Z" fill="white"/>
<path d="M73.2126 14.3491C73.2126 15.2916 72.9366 16.0638 72.3846 16.6696C71.806 17.2923 71.0393 17.603 70.082 17.603C69.1593 17.603 68.4246 17.3053 67.8766 16.7073C67.33 16.1106 67.0566 15.3579 67.0566 14.4505C67.0566 13.5015 67.338 12.7228 67.9033 12.1183C68.4686 11.5138 69.2286 11.2109 70.186 11.2109C71.1086 11.2109 71.85 11.5086 72.4113 12.1053C72.9446 12.6851 73.2126 13.4339 73.2126 14.3491ZM71.7633 14.3933C71.7633 13.8278 71.638 13.3429 71.3886 12.9386C71.0953 12.4498 70.678 12.2054 70.1353 12.2054C69.574 12.2054 69.1473 12.4498 68.854 12.9386C68.6033 13.3429 68.4793 13.8356 68.4793 14.418C68.4793 14.9835 68.6046 15.4684 68.854 15.8727C69.1566 16.3615 69.578 16.6059 70.122 16.6059C70.6553 16.6059 71.074 16.3576 71.3753 15.8597C71.634 15.4476 71.7633 14.9588 71.7633 14.3933Z" fill="white"/>
<path d="M83.6867 11.3359L81.7201 17.4641H80.4401L79.6254 14.803C79.4187 14.1387 79.2507 13.4783 79.1201 12.8231H79.0947C78.9734 13.4965 78.8054 14.1556 78.5894 14.803L77.7241 17.4641H76.4294L74.5801 11.3359H76.0161L76.7267 14.2492C76.8987 14.9382 77.0401 15.5947 77.1534 16.2161H77.1787C77.2827 15.7039 77.4547 15.0513 77.6974 14.2622L78.5894 11.3372H79.7281L80.5827 14.1998C80.7894 14.8979 80.9574 15.57 81.0867 16.2174H81.1254C81.2201 15.5869 81.3627 14.9148 81.5521 14.1998L82.3147 11.3372H83.6867V11.3359Z" fill="white"/>
<path d="M90.9312 17.4639H89.5339V13.9539C89.5339 12.8723 89.1125 12.3315 88.2672 12.3315C87.8525 12.3315 87.5179 12.4797 87.2579 12.7774C87.0005 13.0751 86.8699 13.4261 86.8699 13.8278V17.4626H85.4725V13.0868C85.4725 12.5486 85.4552 11.9649 85.4219 11.3331H86.6499L86.7152 12.2912H86.7539C86.9165 11.9935 87.1592 11.7478 87.4779 11.5515C87.8565 11.3227 88.2805 11.207 88.7445 11.207C89.3312 11.207 89.8192 11.3916 90.2072 11.7621C90.6899 12.2158 90.9312 12.8931 90.9312 13.7927V17.4639Z" fill="white"/>
<path d="M94.7847 17.4635H93.3887V8.52344H94.7847V17.4635Z" fill="white"/>
<path d="M103.01 14.3491C103.01 15.2916 102.734 16.0638 102.182 16.6696C101.603 17.2923 100.835 17.603 99.8789 17.603C98.9549 17.603 98.2202 17.3053 97.6735 16.7073C97.1268 16.1106 96.8535 15.3579 96.8535 14.4505C96.8535 13.5015 97.1349 12.7228 97.7002 12.1183C98.2655 11.5138 99.0255 11.2109 99.9815 11.2109C100.906 11.2109 101.646 11.5086 102.208 12.1053C102.742 12.6851 103.01 13.4339 103.01 14.3491ZM101.559 14.3933C101.559 13.8278 101.434 13.3429 101.184 12.9386C100.892 12.4498 100.474 12.2054 99.9322 12.2054C99.3695 12.2054 98.9428 12.4498 98.6508 12.9386C98.4002 13.3429 98.2762 13.8356 98.2762 14.418C98.2762 14.9835 98.4015 15.4684 98.6508 15.8727C98.9535 16.3615 99.3749 16.6059 99.9189 16.6059C100.452 16.6059 100.87 16.3576 101.171 15.8597C101.431 15.4476 101.559 14.9588 101.559 14.3933Z" fill="white"/>
<path d="M109.773 17.4639H108.518L108.414 16.758H108.376C107.946 17.3209 107.334 17.603 106.54 17.603C105.946 17.603 105.466 17.4171 105.105 17.0479C104.777 16.7125 104.613 16.2952 104.613 15.7999C104.613 15.0511 104.933 14.4804 105.577 14.0852C106.22 13.69 107.124 13.4963 108.288 13.5054V13.391C108.288 12.5837 107.853 12.1807 106.982 12.1807C106.362 12.1807 105.816 12.3328 105.344 12.6344L105.06 11.74C105.644 11.3877 106.365 11.2109 107.216 11.2109C108.858 11.2109 109.682 12.0559 109.682 13.7459V16.0027C109.682 16.615 109.713 17.1025 109.773 17.4639ZM108.322 15.3579V14.4128C106.781 14.3868 106.01 14.7989 106.01 15.6478C106.01 15.9676 106.098 16.2068 106.278 16.3667C106.458 16.5266 106.688 16.6059 106.961 16.6059C107.268 16.6059 107.554 16.511 107.816 16.3225C108.078 16.1327 108.24 15.8922 108.3 15.5971C108.314 15.5308 108.322 15.4502 108.322 15.3579Z" fill="white"/>
<path d="M117.713 17.4635H116.473L116.408 16.4794H116.369C115.973 17.2282 115.298 17.6026 114.35 17.6026C113.593 17.6026 112.962 17.3127 112.462 16.7329C111.962 16.1531 111.713 15.4004 111.713 14.4761C111.713 13.4842 111.984 12.6808 112.528 12.0672C113.054 11.4952 113.7 11.2092 114.468 11.2092C115.312 11.2092 115.902 11.4861 116.238 12.0412H116.265V8.52344H117.664V15.8125C117.664 16.4092 117.68 16.9591 117.713 17.4635ZM116.265 14.8791V13.8573C116.265 13.6805 116.252 13.5375 116.226 13.4283C116.148 13.1007 115.978 12.8251 115.721 12.6028C115.461 12.3805 115.148 12.2687 114.786 12.2687C114.265 12.2687 113.857 12.4702 113.557 12.8745C113.26 13.2788 113.109 13.7949 113.109 14.4254C113.109 15.0312 113.252 15.5226 113.538 15.9009C113.841 16.3039 114.249 16.5054 114.76 16.5054C115.218 16.5054 115.585 16.3377 115.864 16.001C116.133 15.6903 116.265 15.3159 116.265 14.8791Z" fill="white"/>
<path d="M129.664 14.3491C129.664 15.2916 129.388 16.0638 128.836 16.6696C128.257 17.2923 127.492 17.603 126.533 17.603C125.612 17.603 124.877 17.3053 124.328 16.7073C123.781 16.1106 123.508 15.3579 123.508 14.4505C123.508 13.5015 123.789 12.7228 124.354 12.1183C124.92 11.5138 125.68 11.2109 126.638 11.2109C127.56 11.2109 128.302 11.5086 128.862 12.1053C129.396 12.6851 129.664 13.4339 129.664 14.3491ZM128.216 14.3933C128.216 13.8278 128.09 13.3429 127.841 12.9386C127.546 12.4498 127.13 12.2054 126.586 12.2054C126.026 12.2054 125.6 12.4498 125.305 12.9386C125.054 13.3429 124.93 13.8356 124.93 14.418C124.93 14.9835 125.056 15.4684 125.305 15.8727C125.608 16.3615 126.029 16.6059 126.573 16.6059C127.106 16.6059 127.526 16.3576 127.828 15.8597C128.085 15.4476 128.216 14.9588 128.216 14.3933Z" fill="white"/>
<path d="M137.178 17.4639H135.782V13.9539C135.782 12.8723 135.361 12.3315 134.514 12.3315C134.099 12.3315 133.765 12.4797 133.506 12.7774C133.247 13.0751 133.118 13.4261 133.118 13.8278V17.4626H131.719V13.0868C131.719 12.5486 131.703 11.9649 131.67 11.3331H132.897L132.962 12.2912H133.001C133.165 11.9935 133.407 11.7478 133.725 11.5515C134.105 11.3227 134.527 11.207 134.993 11.207C135.578 11.207 136.066 11.3916 136.454 11.7621C136.938 12.2158 137.178 12.8931 137.178 13.7927V17.4639Z" fill="white"/>
<path d="M146.582 12.3553H145.043V15.3323C145.043 16.0889 145.317 16.4672 145.858 16.4672C146.109 16.4672 146.317 16.4464 146.481 16.4035L146.517 17.437C146.241 17.5384 145.878 17.5891 145.431 17.5891C144.879 17.5891 144.45 17.4253 144.139 17.0977C143.827 16.7701 143.673 16.2189 143.673 15.4454V12.3553H142.754V11.3348H143.673V10.2116L145.042 9.80859V11.3335H146.581V12.3553H146.582Z" fill="white"/>
<path d="M153.978 17.4635H152.58V13.9795C152.58 12.881 152.158 12.3311 151.314 12.3311C150.666 12.3311 150.224 12.6496 149.981 13.2866C149.94 13.4205 149.916 13.5843 149.916 13.7767V17.4622H148.52V8.52344H149.916V12.2167H149.942C150.382 11.5446 151.013 11.2092 151.83 11.2092C152.409 11.2092 152.888 11.3938 153.268 11.7643C153.741 12.2258 153.978 12.9122 153.978 13.8196V17.4635Z" fill="white"/>
<path d="M161.609 14.1099C161.609 14.3543 161.591 14.5597 161.557 14.7274H157.367C157.385 15.3332 157.585 15.7947 157.973 16.1145C158.328 16.4005 158.785 16.5435 159.345 16.5435C159.965 16.5435 160.531 16.4473 161.04 16.2536L161.259 17.2C160.663 17.4522 159.961 17.5783 159.149 17.5783C158.176 17.5783 157.409 17.2988 156.855 16.7398C156.297 16.1808 156.021 15.4307 156.021 14.4895C156.021 13.5652 156.279 12.7956 156.797 12.182C157.339 11.5268 158.071 11.1992 158.995 11.1992C159.899 11.1992 160.585 11.5268 161.049 12.182C161.424 12.702 161.609 13.3455 161.609 14.1099ZM160.276 13.7576C160.287 13.3533 160.195 13.0049 160.005 12.7111C159.763 12.3328 159.393 12.143 158.893 12.143C158.437 12.143 158.065 12.3276 157.781 12.6981C157.549 12.9932 157.412 13.3455 157.367 13.7576H160.276Z" fill="white"/>
</svg>
