<svg width="24" height="25" viewBox="0 0 24 25" fill="none" xmlns="http://www.w3.org/2000/svg">
<path d="M15.61 6.00002V16.16C15.61 16.56 15.49 16.95 15.27 17.28L12.54 21.34C12.11 21.99 11.04 22.45 10.13 22.11C9.15002 21.78 8.50002 20.68 8.71002 19.7L9.23002 16.43C9.27002 16.13 9.19002 15.86 9.02002 15.65C8.85002 15.46 8.60002 15.34 8.33002 15.34H4.22002C3.43002 15.34 2.75002 15.02 2.35002 14.46C1.97002 13.92 1.90002 13.22 2.15002 12.51L4.61002 5.02002C4.92002 3.78002 6.27002 2.77002 7.61002 2.77002H11.51C12.18 2.77002 13.12 3.00002 13.55 3.43002L14.83 4.42002C15.32 4.80002 15.61 5.38002 15.61 6.00002Z" fill="#101F4C"/>
<path d="M18.79 18.1099H19.82C21.37 18.1099 22 17.5099 22 16.0299V5.9799C22 4.4999 21.37 3.8999 19.82 3.8999H18.79C17.24 3.8999 16.61 4.4999 16.61 5.9799V16.0399C16.61 17.5099 17.24 18.1099 18.79 18.1099Z" fill="#101F4C"/>
</svg>
