<svg width="24" height="25" viewBox="0 0 24 25" fill="none" xmlns="http://www.w3.org/2000/svg">
<path d="M21.4 13.45L18.62 14.84C18.43 14.94 18.2 14.9 18.04 14.75L16.17 12.88C15.97 12.68 15.97 12.37 16.17 12.17L18.07 10.27C18.22 10.12 18.46 10.08 18.65 10.18L21.4 11.56C22.19 11.94 22.19 13.06 21.4 13.45Z" fill="white"/>
<path d="M16.3 8.98996C16.61 9.13996 16.67 9.54998 16.43 9.78998L14.76 11.46L14.05 12.17C13.85 12.37 13.54 12.37 13.34 12.17L6.2 5.02997C5.8 4.62997 6.27 3.97998 6.78 4.22998L16.3 8.98996Z" fill="white"/>
<path d="M2 20.6501V3.98008C2 3.54008 2.53 3.31007 2.85 3.62007L11.62 12.1301C11.83 12.3301 11.82 12.6601 11.61 12.8601L2.84 21.0201C2.52 21.3201 2 21.0901 2 20.6501Z" fill="white"/>
<path d="M16.27 16.02L6.88001 20.72C6.37001 20.97 5.90001 20.32 6.30001 19.92L13.35 12.87C13.55 12.67 13.86 12.67 14.06 12.87L16.41 15.22C16.64 15.46 16.57 15.87 16.27 16.02Z" fill="white"/>
</svg>
