<svg width="24" height="25" viewBox="0 0 24 25" fill="none" xmlns="http://www.w3.org/2000/svg">
<path d="M8.39 18.9902V8.83022C8.39 8.43022 8.51 8.04022 8.73 7.71022L11.46 3.65022C11.89 3.00022 12.96 2.54022 13.87 2.88022C14.85 3.21022 15.5 4.31022 15.29 5.29022L14.77 8.56022C14.73 8.86022 14.81 9.13022 14.98 9.34022C15.15 9.53022 15.4 9.65022 15.67 9.65022H19.78C20.57 9.65022 21.25 9.97022 21.65 10.5302C22.03 11.0702 22.1 11.7702 21.85 12.4802L19.39 19.9702C19.08 21.2102 17.73 22.2202 16.39 22.2202H12.49C11.82 22.2202 10.88 21.9902 10.45 21.5602L9.17 20.5702C8.68 20.2002 8.39 19.6102 8.39 18.9902Z" fill="#101F4C"/>
<path d="M5.21 6.87988H4.18C2.63 6.87988 2 7.47988 2 8.95988V19.0199C2 20.4999 2.63 21.0999 4.18 21.0999H5.21C6.76 21.0999 7.39 20.4999 7.39 19.0199V8.95988C7.39 7.47988 6.76 6.87988 5.21 6.87988Z" fill="#101F4C"/>
</svg>
